<svg width="1917" height="113" viewBox="0 0 1917 113" fill="none" xmlns="http://www.w3.org/2000/svg">
<path d="M1920 112.273L1813.33 93.5608C1706.67 74.8486 1493.33 37.4243 1280 37.4243C1066.67 37.4243 853.333 74.8486 640 81.047C426.667 87.7132 213.333 61.984 106.667 49.9381L0 37.4243V-1.52588e-05L106.667 -1.52588e-05C213.333 -1.52588e-05 426.667 -1.52588e-05 640 -1.52588e-05C853.333 -1.52588e-05 1066.67 -1.52588e-05 1280 -1.52588e-05C1493.33 -1.52588e-05 1706.67 -1.52588e-05 1813.33 -1.52588e-05L1920 -1.52588e-05V112.273Z" fill="#8C3623"/>
</svg>
