<svg width="32" height="32" viewBox="0 0 32 32" fill="none" xmlns="http://www.w3.org/2000/svg">
<path d="M22.5385 30.6888V25.2245C22.5962 24.5513 22.4971 23.8744 22.2477 23.239C21.9984 22.6036 21.6045 22.0242 21.0923 21.5393C25.9231 21.0452 31 19.3649 31 11.6557C30.9996 9.68437 30.1734 7.78864 28.6923 6.36088C29.3936 4.63619 29.344 2.72984 28.5538 1.03783C28.5538 1.03783 26.7385 0.543648 22.5385 3.12752C19.0123 2.25044 15.2954 2.25044 11.7692 3.12752C7.56923 0.543648 5.75385 1.03783 5.75385 1.03783C4.96366 2.72984 4.91407 4.63619 5.61538 6.36088C4.12327 7.79924 3.29619 9.71209 3.30769 11.6981C3.30769 19.3508 8.38461 21.031 13.2154 21.5817C12.7092 22.0617 12.3189 22.6342 12.0697 23.2618C11.8205 23.8894 11.7182 24.5582 11.7692 25.2245V30.6888M11.7692 26.4529C4.07692 28.5709 4.07692 22.9231 1 22.2171L11.7692 26.4529Z" stroke="#8C3623" stroke-width="2" stroke-linecap="round" stroke-linejoin="round"/>
</svg>
