<svg width="753" height="647" viewBox="0 0 753 647" fill="none" xmlns="http://www.w3.org/2000/svg">
<g clip-path="url(#clip0_16_36)">
<path d="M60.4522 178.754C93.8391 178.754 120.904 151.693 120.904 118.312C120.904 84.9309 93.8391 57.8701 60.4522 57.8701C27.0654 57.8701 0 84.9309 0 118.312C0 151.693 27.0654 178.754 60.4522 178.754Z" fill="#F25922"/>
<path d="M701.349 507.165C701.074 517.453 699.35 527.652 696.229 537.459C696.158 537.687 696.083 537.911 696.008 538.139H676.9C676.921 537.935 676.941 537.707 676.961 537.459C678.236 522.815 685.581 433.684 676.798 418.442C677.566 419.679 702.831 460.633 701.349 507.165Z" fill="#B6AC91" fill-opacity="0.8"/>
<path d="M699.915 537.459C699.756 537.687 699.589 537.914 699.419 538.139H685.085C685.194 537.945 685.319 537.717 685.465 537.459C687.834 533.186 694.843 520.41 701.349 507.165C708.341 492.931 714.756 478.158 714.216 472.811C714.382 474.017 719.22 510.779 699.915 537.459Z" fill="#B6AC91" fill-opacity="0.8"/>
<path d="M753 536.836H203.546V538.633H753V536.836Z" fill="#B6AC91" fill-opacity="0.5"/>
<path d="M555.248 592.952L557.917 570.935L633.32 551.587L624.645 525.567C630.688 508.239 641.297 499.744 660.679 508.221L694.018 528.928C697.258 530.941 699.898 533.787 701.661 537.169C703.424 540.551 704.245 544.344 704.039 548.152C703.836 551.976 702.603 555.673 700.472 558.854C698.341 562.035 695.39 564.582 691.931 566.225C654.608 583.914 607.039 590.682 555.248 592.952Z" fill="#FFB8B8"/>
<path d="M559.919 599.623L536.564 596.287L514.72 600.745C513.381 601.018 512 600.997 510.67 600.684C509.341 600.371 508.095 599.773 507.019 598.931C505.943 598.09 505.063 597.025 504.439 595.81C503.815 594.595 503.463 593.259 503.406 591.895C503.343 590.368 503.65 588.85 504.304 587.469C504.957 586.088 505.935 584.887 507.155 583.967L541.386 558.182C544.322 555.97 547.949 554.878 551.618 555.1C555.287 555.321 558.757 556.844 561.405 559.393L569.928 567.599C563.829 571.383 559.293 577.059 556.583 584.946C562.445 588.168 563.557 593.06 559.919 599.623Z" fill="#2F2E41"/>
<path d="M582.225 368.474C594.154 368.474 603.824 358.806 603.824 346.879C603.824 334.952 594.154 325.284 582.225 325.284C570.296 325.284 560.626 334.952 560.626 346.879C560.626 358.806 570.296 368.474 582.225 368.474Z" fill="#FFB8B8"/>
<path d="M615.971 389.465L567.593 409.814C571.524 390.075 573.484 372.095 567.593 361.11L598.621 357.441C597.081 365.883 604.931 377.188 615.971 389.465Z" fill="#FFB8B8"/>
<path d="M533.895 592.285L515.878 590.95C504.841 544.933 499.19 501.436 501.657 461.741C502.005 455.945 504.585 450.511 508.855 446.577C513.125 442.642 518.753 440.515 524.558 440.64C530.137 440.767 535.467 442.968 539.509 446.814L562.808 468.981C573.198 478.79 581.263 490.797 586.415 504.124C593.013 521.403 590.644 531.089 574.892 529.444C565.049 528.347 555.996 523.535 549.581 515.99L532.56 496.212L533.895 592.285Z" fill="#FFB8B8"/>
<path d="M519.943 646.967C517.581 646.813 515.287 646.118 513.238 644.934C511.188 643.751 509.439 642.112 508.125 640.144C506.811 638.176 505.969 635.932 505.662 633.586C505.355 631.24 505.593 628.855 506.356 626.615L509.873 616.302L512.542 590.283C516.653 581.894 522.476 583.149 529.224 589.616C533.514 589.195 534.434 584.906 533.895 578.941L547.422 597.148C548.58 598.706 549.299 600.546 549.503 602.476C549.708 604.407 549.391 606.356 548.586 608.123L534.971 637.981C533.674 640.827 531.541 643.21 528.857 644.815C526.173 646.42 523.064 647.171 519.943 646.967Z" fill="#2F2E41"/>
<path d="M690.373 526.568C665.683 540.579 657.945 540.985 633.32 550.92L611.967 538.911C586.889 548.182 569.298 535.473 550.243 516.561C562.713 495.795 557.198 468.811 564.923 469.192L657.342 498.214L661.346 508.221L690.373 526.568Z" fill="#262626"/>
<path d="M660.678 504.885C628.046 519.008 592.911 504.056 562.922 471.193L543.064 391.011C542.83 390.128 542.778 389.206 542.914 388.302C543.049 387.399 543.368 386.532 543.851 385.756C544.334 384.98 544.971 384.312 545.722 383.791C546.474 383.271 547.324 382.91 548.22 382.731L571.263 378.123L582.606 396.137L605.294 376.122L629.388 383.997C632.592 385.045 635.451 386.942 637.659 389.488C639.868 392.033 641.343 395.131 641.928 398.45L660.678 504.885Z" fill="#F25922"/>
<path opacity="0.2" d="M608.846 572.86C607.085 572.189 605.511 571.106 604.255 569.701C602.999 568.296 602.099 566.61 601.629 564.785C601.16 562.96 601.135 561.05 601.556 559.213C601.978 557.377 602.834 555.668 604.053 554.231L619.307 536.242L629.984 542.247L624.486 564.657C624.088 566.278 623.35 567.797 622.321 569.112C621.292 570.426 619.995 571.507 618.516 572.283C617.037 573.059 615.41 573.511 613.743 573.611C612.076 573.71 610.407 573.454 608.846 572.86Z" fill="black"/>
<path d="M608.846 570.191C607.085 569.521 605.511 568.437 604.255 567.032C602.999 565.627 602.099 563.942 601.629 562.117C601.16 560.292 601.135 558.381 601.556 556.545C601.978 554.708 602.834 553 604.053 551.562L619.307 533.574L629.984 539.578L624.486 561.988C624.088 563.61 623.35 565.128 622.321 566.443C621.292 567.758 619.994 568.839 618.516 569.615C617.037 570.39 615.41 570.843 613.743 570.942C612.076 571.042 610.407 570.786 608.846 570.191Z" fill="#FFB8B8"/>
<path d="M632.653 544.915L616.638 534.241L639.993 472.194L631.318 384.795L639.231 389.74C643.478 392.394 647.142 395.882 649.999 399.994C652.857 404.106 654.85 408.756 655.856 413.661L668.686 476.197C663.072 505.022 653.715 530.383 632.653 544.915Z" fill="#F25922"/>
<path opacity="0.2" d="M622.977 445.841L630.985 485.871L624.399 509.283L622.977 445.841Z" fill="black"/>
<path d="M561.102 345.027C561.102 345.027 548.655 304.3 586.695 312.841C592.595 314.166 597.693 317.595 601.748 322.081C602.111 322.473 602.556 322.781 603.051 322.983C603.546 323.185 604.079 323.277 604.614 323.251C610.69 323.251 614.444 344.962 602.29 354.51C602.29 354.51 604.77 341.662 600.263 337.285C599.452 336.544 598.774 335.67 598.256 334.702C595.323 328.785 585.461 326.842 578.659 327.346C575.186 327.603 574.883 333.657 571.039 332.811C562.292 330.887 559.501 341.018 561.102 345.027Z" fill="#2F2E41"/>
<path d="M599.389 405.476L599.138 407.32L597.583 418.698L595.038 437.332L594.4 441.997C594.352 442.353 594.176 442.68 593.905 442.916C593.634 443.152 593.287 443.283 592.927 443.282H575.952C575.593 443.283 575.246 443.153 574.976 442.917C574.705 442.682 574.528 442.356 574.479 442.001L573.831 437.332L571.242 418.698L569.66 407.312L569.406 405.479C569.377 405.269 569.393 405.055 569.453 404.851C569.514 404.647 569.617 404.459 569.757 404.299C569.897 404.138 570.069 404.01 570.262 403.922C570.456 403.834 570.666 403.788 570.878 403.788H597.916C598.129 403.788 598.338 403.834 598.531 403.922C598.725 404.009 598.897 404.138 599.036 404.297C599.176 404.457 599.28 404.645 599.34 404.848C599.401 405.052 599.418 405.266 599.389 405.476Z" fill="#E6E6E6"/>
<path d="M572.669 398.852H596.213C596.408 398.852 596.601 398.89 596.782 398.965C596.962 399.039 597.126 399.149 597.264 399.287C597.402 399.425 597.512 399.589 597.586 399.769C597.661 399.95 597.7 400.143 597.7 400.338V402.302C597.7 402.696 597.543 403.074 597.264 403.353C596.985 403.632 596.607 403.788 596.213 403.788H572.669C572.275 403.788 571.897 403.632 571.618 403.353C571.339 403.074 571.183 402.696 571.183 402.302V400.338C571.183 400.143 571.221 399.95 571.296 399.769C571.371 399.589 571.48 399.425 571.618 399.287C571.756 399.149 571.92 399.039 572.1 398.965C572.281 398.89 572.474 398.852 572.669 398.852Z" fill="#3F3D56"/>
<path d="M601.516 406.257C590.167 407.495 578.716 407.495 567.366 406.257C567.171 406.257 566.978 406.218 566.797 406.143C566.617 406.069 566.453 405.959 566.315 405.821C566.177 405.683 566.067 405.519 565.993 405.339C565.918 405.159 565.879 404.965 565.879 404.77V402.806C565.879 402.611 565.918 402.418 565.993 402.237C566.067 402.057 566.177 401.893 566.315 401.755C566.453 401.617 566.617 401.508 566.797 401.433C566.978 401.358 567.171 401.32 567.366 401.32C578.707 402.714 590.176 402.714 601.516 401.32C601.911 401.32 602.289 401.476 602.568 401.755C602.846 402.034 603.003 402.412 603.003 402.806V404.77C603.003 405.164 602.846 405.542 602.568 405.821C602.289 406.1 601.911 406.257 601.516 406.257Z" fill="#3F3D56"/>
<path d="M583.752 429.069C587.296 429.069 590.169 426.196 590.169 422.653C590.169 419.109 587.296 416.237 583.752 416.237C580.208 416.237 577.335 419.109 577.335 422.653C577.335 426.196 580.208 429.069 583.752 429.069Z" fill="white"/>
<path d="M600.249 436.151C600.444 438.025 600.187 439.918 599.498 441.672C598.81 443.427 597.711 444.99 596.293 446.232C594.876 447.473 593.181 448.357 591.351 448.808C589.521 449.259 587.61 449.265 585.778 448.825L562.842 443.32L563.39 431.085L585.876 425.89C587.503 425.514 589.191 425.488 590.829 425.814C592.467 426.14 594.017 426.811 595.376 427.781C596.735 428.751 597.872 429.999 598.712 431.442C599.553 432.885 600.076 434.49 600.249 436.151Z" fill="#FFB8B8"/>
<path d="M569.261 445.507L507.362 447.054C505.128 447.11 502.908 446.678 500.858 445.789C498.807 444.899 496.975 443.573 495.49 441.903C494.005 440.233 492.901 438.26 492.257 436.12C491.612 433.98 491.442 431.726 491.758 429.513C492.253 426.047 493.917 422.854 496.475 420.462L525.619 393.203C531.024 388.147 537.759 384.738 545.034 383.374L555.248 381.459L561.253 426.826L526.555 422.823L567.259 427.494L569.261 445.507Z" fill="#F25922"/>
<path d="M487.715 578.633H329.691C328.285 578.633 326.938 578.075 325.944 577.081C324.95 576.088 324.392 574.74 324.392 573.335C381.676 566.679 437.883 566.679 493.013 573.335C493.013 574.74 492.455 576.088 491.461 577.081C490.468 578.075 489.12 578.633 487.715 578.633Z" fill="#2F2E41"/>
<path d="M493.013 573.647L324.392 573.335L343.935 540.458L344.028 540.302V467.845C344.028 466.966 344.201 466.095 344.538 465.282C344.875 464.47 345.368 463.731 345.99 463.11C346.612 462.488 347.35 461.994 348.163 461.658C348.976 461.321 349.847 461.148 350.726 461.148H465.744C466.624 461.148 467.495 461.321 468.307 461.658C469.12 461.994 469.859 462.488 470.481 463.11C471.103 463.731 471.596 464.47 471.932 465.282C472.269 466.095 472.442 466.966 472.442 467.845V540.801L493.013 573.647Z" fill="#3F3D56"/>
<path d="M350.574 465.823C349.995 465.823 349.441 466.053 349.032 466.462C348.623 466.871 348.392 467.426 348.392 468.004V534.07C348.393 534.648 348.623 535.202 349.032 535.611C349.441 536.02 349.995 536.25 350.574 536.251H466.832C467.41 536.25 467.965 536.02 468.374 535.611C468.783 535.202 469.013 534.648 469.014 534.07V468.004C469.013 467.426 468.783 466.871 468.374 466.462C467.965 466.053 467.41 465.823 466.832 465.823L350.574 465.823Z" fill="white"/>
<path d="M351.338 544.977C351.159 544.977 350.984 545.028 350.834 545.125C350.683 545.221 350.563 545.359 350.488 545.521L344.467 558.609C344.401 558.752 344.372 558.908 344.383 559.065C344.394 559.221 344.444 559.372 344.529 559.505C344.613 559.637 344.73 559.745 344.867 559.82C345.005 559.896 345.159 559.935 345.316 559.935H471.949C472.108 559.935 472.265 559.894 472.404 559.817C472.543 559.739 472.66 559.627 472.744 559.492C472.828 559.356 472.876 559.201 472.883 559.042C472.89 558.883 472.856 558.725 472.785 558.582L466.24 545.494C466.162 545.338 466.043 545.207 465.895 545.116C465.748 545.024 465.577 544.976 465.403 544.977L351.338 544.977Z" fill="#2F2E41"/>
<path d="M408.235 464.732C409.01 464.732 409.638 464.104 409.638 463.33C409.638 462.555 409.01 461.927 408.235 461.927C407.461 461.927 406.833 462.555 406.833 463.33C406.833 464.104 407.461 464.732 408.235 464.732Z" fill="white"/>
<path d="M395.788 562.428C395.583 562.428 395.383 562.496 395.22 562.621C395.057 562.746 394.939 562.922 394.885 563.12L393.375 568.729C393.338 568.868 393.333 569.013 393.361 569.154C393.388 569.295 393.448 569.427 393.536 569.541C393.623 569.655 393.735 569.747 393.864 569.811C393.993 569.874 394.134 569.907 394.278 569.907H423.004C423.153 569.907 423.3 569.872 423.432 569.803C423.565 569.735 423.679 569.636 423.765 569.515C423.852 569.393 423.908 569.253 423.929 569.105C423.95 568.958 423.936 568.808 423.887 568.667L421.945 563.057C421.881 562.874 421.762 562.714 421.604 562.602C421.446 562.489 421.256 562.428 421.062 562.428H395.788Z" fill="#2F2E41"/>
<path d="M472.442 539.211V540.458H343.935L344.031 540.302V539.211H472.442Z" fill="#2F2E41"/>
<path d="M289.487 497.637C289.84 510.824 292.05 523.895 296.05 536.466C296.141 536.757 296.237 537.045 296.333 537.337H320.824C320.798 537.075 320.772 536.784 320.745 536.466C319.112 517.696 309.698 403.456 320.954 383.92C319.97 385.505 287.589 437.996 289.487 497.637Z" fill="#B6AC91" fill-opacity="0.8"/>
<path d="M291.325 536.466C291.53 536.758 291.743 537.049 291.961 537.337H310.333C310.194 537.089 310.033 536.797 309.846 536.466C306.81 530.989 297.827 514.613 289.487 497.637C280.525 479.394 272.304 460.459 272.996 453.605C272.783 455.151 266.581 502.27 291.325 536.466Z" fill="#B6AC91" fill-opacity="0.8"/>
<path d="M332.763 140.475L342.72 132.512C334.985 131.659 331.806 135.877 330.506 139.216C324.462 136.707 317.884 139.995 317.884 139.995L337.806 147.226C336.801 144.542 335.052 142.2 332.763 140.475Z" fill="#3F3D56"/>
<path d="M632.663 99.4892L642.621 91.5268C634.885 90.6735 631.707 94.8915 630.406 98.23C624.363 95.7211 617.785 99.0091 617.785 99.0091L637.707 106.24C636.702 103.556 634.952 101.214 632.663 99.4892Z" fill="#3F3D56"/>
<path d="M575.327 205.155L585.284 197.192C577.549 196.339 574.371 200.557 573.07 203.895C567.027 201.387 560.448 204.675 560.448 204.675L580.371 211.906C579.366 209.222 577.616 206.88 575.327 205.155Z" fill="#3F3D56"/>
<path d="M184.465 361.71C233.329 352.901 258.369 264.949 240.393 165.263C222.417 65.5766 168.232 -8.09425 119.367 0.714378C70.5026 9.52301 45.4628 97.4755 63.439 197.162C81.4153 296.848 135.6 370.519 184.465 361.71Z" fill="#B6AC91"/>
<path d="M137.192 146.883C145.1 168.382 152.137 190.174 158.303 212.259C164.457 234.323 169.722 256.61 174.096 279.12C178.471 301.622 181.939 324.275 184.5 347.078C187.049 369.842 188.687 392.684 189.414 415.603C190.136 438.497 189.937 461.396 188.816 484.299C188.678 487.105 188.526 489.91 188.36 492.714C188.191 495.587 192.661 495.577 192.829 492.714C194.18 469.739 194.603 446.735 194.1 423.703C193.594 400.803 192.172 377.947 189.833 355.136C187.489 332.258 184.242 309.496 180.091 286.85C175.937 264.214 170.881 241.768 164.921 219.513C158.964 197.283 152.115 175.318 144.374 153.618C143.43 150.972 142.472 148.331 141.501 145.695C140.517 143.019 136.196 144.175 137.192 146.883V146.883Z" fill="#3F3D56"/>
<path d="M167.987 231.456L187.787 187.5L193.367 175.111C193.649 174.595 193.723 173.992 193.574 173.423C193.425 172.855 193.064 172.365 192.566 172.054C192.053 171.76 191.445 171.679 190.873 171.829C190.301 171.978 189.811 172.347 189.508 172.856L169.708 216.812L164.128 229.201C163.846 229.717 163.772 230.32 163.921 230.889C164.07 231.457 164.431 231.947 164.929 232.258C165.442 232.552 166.05 232.633 166.622 232.483C167.194 232.333 167.684 231.965 167.987 231.456H167.987Z" fill="#3F3D56"/>
<path d="M172.362 261.491L127.214 244.566L114.489 239.796C113.918 239.644 113.309 239.722 112.795 240.014C112.281 240.306 111.902 240.788 111.74 241.357C111.595 241.928 111.677 242.532 111.968 243.045C112.259 243.557 112.736 243.937 113.301 244.105L158.449 261.029L171.174 265.8C171.745 265.952 172.353 265.874 172.868 265.582C173.382 265.29 173.761 264.808 173.922 264.239C174.067 263.668 173.985 263.064 173.695 262.551C173.404 262.039 172.926 261.659 172.362 261.491V261.491Z" fill="#3F3D56"/>
<path d="M137.205 501.241C137.205 501.241 191.579 483.367 242.23 501.241H137.205Z" fill="#B6AC91"/>
<path d="M380.509 492.772C391.284 492.66 402.057 492.467 412.831 492.321C416.423 492.272 420.015 492.229 423.607 492.193C426.702 492.16 426.71 487.348 423.607 487.381C412.833 487.493 402.059 487.686 391.285 487.832C387.693 487.881 384.101 487.923 380.509 487.96C377.414 487.992 377.406 492.804 380.509 492.772Z" fill="#F24E29"/>
<path d="M380.509 504L424.056 503.549L436.441 503.42C439.536 503.388 439.544 498.576 436.441 498.609L392.894 499.06L380.509 499.188C377.414 499.22 377.406 504.032 380.509 504Z" fill="#F24E29"/>
<path d="M380.509 515.228L424.056 514.777L436.441 514.648C439.536 514.616 439.544 509.804 436.441 509.836L392.894 510.287L380.509 510.416C377.414 510.448 377.406 515.26 380.509 515.228Z" fill="#F24E29"/>
</g>
<defs>
<clipPath id="clip0_16_36">
<rect width="753" height="647" fill="white"/>
</clipPath>
</defs>
</svg>
