<svg width="1920" height="75" viewBox="0 0 1920 75" fill="none" xmlns="http://www.w3.org/2000/svg">
<path d="M1920 0H0L18.0188 2.85L27.0282 4.3L36.0375 5.9L72.0751 12.2L95.0991 16.1L111.616 18.9L124.63 21L130.636 22L134.14 22.6L137.143 23.1L149.155 25L153.66 25.7L167.675 27.95L181.689 30.2L200.459 33.1L219.228 36L233.243 38L246.757 40L253.264 41L260.271 42L267.278 43L280.792 45L320.083 50.33L359.374 55.5L394.161 59.65L428.947 63.6L447.216 65.5L465.485 67.3L497.518 70.1L522.044 72L539.062 73L566.09 74.4L587.862 74.9L609.635 75L632.159 74.85L654.682 74.5L685.965 73.75L717.247 72.8L766.298 70.5L815.349 67.5L873.41 63L914.953 59.4L1007.55 50.5L1045.84 46.8L1084.13 43.3L1125.92 39.7L1167.72 36.5L1192.74 34.9L1217.77 33.5L1230.28 32.8L1251.8 31.8L1273.33 31L1288.84 30.5L1301.86 30.2L1318.87 29.8L1347.4 29.5H1383.44L1449.51 30.5L1517.08 33.5L1550.62 35.5L1580.65 37.5L1614.18 40L1650.22 43L1713.79 49L1780.85 56.5L1852.43 65.5L1920 75V0Z" fill="#8C3623"/>
</svg>
