<svg width="49" height="44" viewBox="0 0 49 44" fill="none" xmlns="http://www.w3.org/2000/svg">
<path d="M47 24.066C46.6059 27.9027 45.0054 31.559 42.3858 34.6072C39.7662 37.6554 36.2359 39.9693 32.2079 41.2783C28.1799 42.5872 23.8208 42.8371 19.6407 41.9985C15.4606 41.16 11.6325 39.2678 8.60411 36.5433C5.57577 33.8188 3.47251 30.3747 2.54045 26.6141C1.6084 22.8534 1.88609 18.9317 3.34103 15.3079C4.79598 11.684 7.368 8.50793 10.7561 6.15119C14.1443 3.79445 18.2084 2.35456 22.473 2C19.9762 5.03891 18.7747 8.7831 19.0871 12.5516C19.3995 16.3201 21.2049 19.8626 24.1751 22.5347C27.1452 25.2068 31.0828 26.8311 35.2716 27.1121C39.4604 27.3932 43.6222 26.3123 47 24.066V24.066Z" stroke="#F25922" stroke-width="3" stroke-linecap="round" stroke-linejoin="round"/>
</svg>
